<?xml version="1.0" ?><!DOCTYPE svg  PUBLIC '-//W3C//DTD SVG 1.1//EN'  'http://www.w3.org/Graphics/SVG/1.1/DTD/svg11.dtd'><svg enable-background="new 0 0 128 128" id="Слой_1" version="1.1" viewBox="0 0 128 128" xml:space="preserve" xmlns="http://www.w3.org/2000/svg" xmlns:xlink="http://www.w3.org/1999/xlink"><g><g><circle cx="64" cy="63.3" fill="#FFE473" r="62"/></g><path d="M2.2,68.4c0,0,0,0.1,0,0.1C4.5,100.6,31.3,126,64,126s59.5-25.4,61.8-57.5c0,0,0-0.1,0-0.1   c-19.5-6.3-40.2-9.7-61.8-9.7S21.7,62.1,2.2,68.4z" fill="#A4CF5C"/><g><path d="M61,36.7l1.4,10.1c-0.4,0.3-0.9,0.7-1.3,1l-1.5-10.9L61,36.7z" fill="#666666"/><path d="M61,36.7l1.4,10.1c-0.4,0.3-0.9,0.7-1.3,1l-1.5-10.9L61,36.7z" fill="#666666"/><path d="M57.3,29.3c-0.1,0,0,0.5-0.2,0.5c-2.2,0.3-7.7,1.2-8.8,1.3c-0.9,0.1-1.6,0.1-2.1-0.1    c-0.3-0.1-0.6-0.3-0.8-0.5c-0.7-0.7-0.9-2.5-0.7-3.9c0.2-1.4,1.5-3.4,3.8-3.4c0.6,0,1.4,0.2,2.5,0.5c0,0,0,0,0,0    c1.8,0.6,3.8,1.5,5.1,2.1c0.6,0.3,1.5,0.8,1.7,0.9C59.2,27.7,57.6,29.4,57.3,29.3z" fill="#B5B4B6"/><path d="M58.3,30.6c-0.1-0.5-0.6-0.9-1.1-0.8c-2.2,0.3-7.3,1-8.4,1.1c-1.4,0.1-2.2,0-2.8-0.6    c-0.6-0.6-0.8-2.4-0.6-3.7s1.4-3.2,3.6-3.2c2.2,0,7.3,2.6,8.5,3.1c1.3,0.5,2.3,1.6,2.8,4.1c0.3,1.2,0.5,2.9,0.7,4.2    c-0.7,0.2-1.3,0.3-1.8,0.3C58.8,33.6,58.5,31.7,58.3,30.6z" fill="#666666"/><g><path d="M57.5,29.8c-0.1,0-0.2,0-0.4,0C57.3,29.8,57.4,29.8,57.5,29.8z" fill="#E3E1E2"/><path d="M59.6,37.3c-0.1-0.1-0.3-1.1-0.5-2.3c0.5,0,1.1,0,1.8-0.3l0,0c0.2,1.3,0.2,2.3,0.2,2.3     C60.7,37.4,60.1,37.5,59.6,37.3z" fill="#2D2F30"/></g></g><g><path d="M63.7,38.7c-0.2,0.1-0.5,0.3-0.7,0.4C63.2,39,63.5,38.8,63.7,38.7z" fill="#666666"/><path d="M62.2,39.5c0.3-0.1,0.5-0.2,0.8-0.4C62.7,39.3,62.4,39.4,62.2,39.5z" fill="#666666"/><polygon fill="#666666" points="63.7,38.7 63.7,38.7 63.7,38.7   "/><polygon fill="#666666" points="62.2,39.5 62.2,39.5 62.2,39.5   "/><path d="M63,39.1C63,39.1,63,39.1,63,39.1C63,39.1,63,39.1,63,39.1z" fill="#666666"/><path d="M62.1,23.6l1.6,15.1l0,0c-0.2,0.1-0.5,0.3-0.7,0.4c0,0,0,0,0,0c-0.3,0.1-0.5,0.3-0.8,0.4l0,0l-1.7-15.7    L62.1,23.6z" fill="#666666"/><path d="M61.1,29.6l-0.6-5.8l1.6-0.2l0.6,5.9c0,0,0,0,0,0L61.1,29.6z" fill="#000504" opacity="0.1"/><g><path d="M62.2,39.5c0.1,0,0.1-0.1,0.2-0.1C62.3,39.5,62.3,39.5,62.2,39.5z" fill="#FDFDFD" opacity="0.2"/><polygon fill="#FDFDFD" opacity="0.2" points="62.2,39.5 62.2,39.5 62.2,39.5    "/><path d="M62.6,39.3c-0.1,0-0.1,0.1-0.2,0.1C62.5,39.4,62.5,39.4,62.6,39.3L62.6,39.3z" fill="#FDFDFD" opacity="0.2"/><path d="M62.1,23.6l0,0.2l-1.2,0.1l1.7,15.4c-0.1,0-0.1,0.1-0.2,0.1c-0.1,0-0.1,0.1-0.2,0.1l0,0     l-1.7-15.7L62.1,23.6z" fill="#FDFDFD" opacity="0.2"/><path d="M63.7,38.7c-0.1,0.1-0.3,0.2-0.4,0.2l0,0C63.5,38.9,63.6,38.8,63.7,38.7z" fill="#000504" opacity="0.1"/><polygon fill="#000504" opacity="0.1" points="63.7,38.7 63.7,38.7 63.7,38.7    "/><path d="M61.7,23.7l0.4,0l1.6,15.1c0,0,0,0,0,0c-0.1,0.1-0.3,0.2-0.4,0.2L61.7,23.7z" fill="#000504" opacity="0.1"/></g><path d="M62.7,29.3L61,29.4c-0.1,0-0.2-0.1-0.2-0.2l-0.7-5.4c-0.1-0.6-0.5-1.1-1.1-1.2c-1.6-0.4-4.9-1.1-6.3-1.3    c-0.9-0.1-1.5-0.3-1.8-0.4c-0.5-0.2-0.9-0.6-1-1.1c-0.2-0.8,0.1-1.6,0.1-1.6c0.7-1.9,3.2-1.3,4.2-1.1c4.6,1.1,7.7,2.2,9.1,2.8    c0.9,0.4,1.4,1.3,1.3,2.3c0,0,0,0,0,0c-0.2,0.7-0.7,1.1-1.2,1.2c-0.5,0.1-0.8,0.6-0.7,1.1l0.4,4.5C63,29.2,62.9,29.3,62.7,29.3z" fill="#B5B4B6"/><path d="M62.8,29.3l-1.6,0.1l-0.8-6.1c-0.1-0.7-0.6-1.3-1.3-1.6c-0.1,0-0.1,0-0.2,0c-1.8-0.4-4.9-1.1-6.4-1.3    c-0.9-0.2-1.5-0.3-1.8-0.4c-0.4-0.1-0.6-0.4-0.7-0.7c-0.1-0.6,0.1-1.3,0.1-1.3c0.1-0.3,0.2-0.5,0.5-0.6c1-0.6,2.6-0.3,3.4-0.1    c1.7,0.4,3.1,0.8,4.4,1.2c0.2,0.1,0.4,0.1,0.7,0.2c0.1,0,0.1,0,0.2,0.1c0.8,0.2,1.5,0.5,2.1,0.7c0.7,0.3,1.3,0.5,1.7,0.6    c0.9,0.4,1.4,1.3,1.3,2.3c0,0,0,0,0,0c0,0,0,0,0,0c-0.1,0.3-0.3,0.6-0.6,0.7c-0.1,0.1-0.3,0.1-0.5,0.2c-0.7,0.2-1.1,0.9-1,1.6    L62.8,29.3z" fill="#E8E7E9"/><g><path d="M50.1,19.2" fill="#FFFFFF"/></g><g><path d="M50.8,20" fill="#FFFFFF"/></g><g><path d="M61.3,23.7" fill="#E9705A"/><g><path d="M63.3,23.5C63.3,23.5,63.2,23.5,63.3,23.5c0.1-0.1,0.2-0.1,0.3-0.2c0.1,0,0.2-0.1,0.3-0.1      C63.6,23.4,63.4,23.5,63.3,23.5z" fill="#C9C8CA"/></g></g><g opacity="0.5"><path d="     M58.9,20.1" fill="none" stroke="#4E4F52" stroke-linecap="round" stroke-linejoin="round" stroke-miterlimit="10" stroke-width="0.7"/><path d="     M56.5,19.4" fill="none" stroke="#4E4F52" stroke-linecap="round" stroke-linejoin="round" stroke-miterlimit="10" stroke-width="0.7"/></g></g><g><path d="M66.6,43.7c0.2,0.1,0.5,0.3,0.7,0.4C67,44,66.8,43.8,66.6,43.7z" fill="#666666"/><path d="M68.1,44.5c-0.3-0.1-0.5-0.2-0.8-0.4C67.6,44.3,67.8,44.4,68.1,44.5z" fill="#666666"/><polygon fill="#666666" points="66.6,43.7 66.6,43.7 66.6,43.7   "/><polygon fill="#666666" points="68.1,44.5 68.1,44.5 68.1,44.5   "/><path d="M67.3,44.1C67.3,44.1,67.3,44.1,67.3,44.1C67.3,44.1,67.3,44.1,67.3,44.1z" fill="#666666"/><path d="M68.2,28.6l-1.6,15.1l0,0c0.2,0.1,0.5,0.3,0.7,0.4c0,0,0,0,0,0c0.3,0.1,0.5,0.3,0.8,0.4l0,0l1.7-15.7    L68.2,28.6z" fill="#666666"/><path d="M69.2,34.6l0.6-5.8l-1.6-0.2l-0.6,5.9c0,0,0,0,0,0L69.2,34.6z" fill="#000504" opacity="0.1"/><g><path d="M68.1,44.5c-0.1,0-0.1-0.1-0.2-0.1C68,44.5,68,44.5,68.1,44.5z" fill="#FDFDFD" opacity="0.2"/><polygon fill="#FDFDFD" opacity="0.2" points="68.1,44.5 68.1,44.5 68.1,44.5    "/><path d="M67.7,44.3c0.1,0,0.1,0.1,0.2,0.1C67.8,44.4,67.8,44.4,67.7,44.3L67.7,44.3z" fill="#FDFDFD" opacity="0.2"/><path d="M68.2,28.6l0,0.2l1.2,0.1l-1.7,15.4c0.1,0,0.1,0.1,0.2,0.1c0.1,0,0.1,0.1,0.2,0.1l0,0     l1.7-15.7L68.2,28.6z" fill="#FDFDFD" opacity="0.2"/><path d="M66.6,43.7c0.1,0.1,0.3,0.2,0.4,0.2l0,0C66.8,43.9,66.7,43.8,66.6,43.7z" fill="#000504" opacity="0.1"/><polygon fill="#000504" opacity="0.1" points="66.6,43.7 66.6,43.7 66.6,43.7    "/><path d="M68.6,28.7l-0.4,0l-1.6,15.1l0,0c0.1,0.1,0.3,0.2,0.4,0.2L68.6,28.7z" fill="#000504" opacity="0.1"/></g><path d="M67.5,34.3l1.7,0.1c0.1,0,0.2-0.1,0.2-0.2l0.7-5.4c0.1-0.6,0.5-1.1,1.1-1.2c1.6-0.4,4.9-1.1,6.3-1.3    c0.9-0.1,1.5-0.3,1.8-0.4c0.5-0.2,0.9-0.6,1-1.1c0.2-0.8-0.1-1.6-0.1-1.6c-0.7-1.9-3.2-1.3-4.2-1.1c-4.6,1.1-7.7,2.2-9.1,2.8    c-0.9,0.4-1.4,1.3-1.3,2.3c0,0,0,0,0,0c0.2,0.7,0.7,1.1,1.2,1.2c0.5,0.1,0.8,0.6,0.7,1.1l-0.4,4.5C67.3,34.2,67.4,34.3,67.5,34.3z    " fill="#B5B4B6"/><path d="M67.5,34.3l1.6,0.1l0.8-6.1c0.1-0.7,0.6-1.3,1.3-1.6c0.1,0,0.1,0,0.2,0c1.8-0.4,4.9-1.1,6.4-1.3    c0.9-0.2,1.5-0.3,1.8-0.4c0.4-0.1,0.6-0.4,0.7-0.7c0.1-0.6-0.1-1.3-0.1-1.3c-0.1-0.3-0.2-0.5-0.5-0.6c-1-0.6-2.6-0.3-3.4-0.1    c-1.7,0.4-3.1,0.8-4.4,1.2c-0.2,0.1-0.4,0.1-0.7,0.2c-0.1,0-0.1,0-0.2,0.1c-0.8,0.2-1.5,0.5-2.1,0.7C68,24.6,67.4,24.8,67,25    c-0.9,0.4-1.4,1.3-1.3,2.3c0,0,0,0,0,0c0,0,0,0,0,0c0.1,0.3,0.3,0.6,0.6,0.7c0.1,0.1,0.3,0.1,0.5,0.2c0.7,0.2,1.1,0.9,1,1.6    L67.5,34.3z" fill="#666666"/><g><path d="M80.1,24.2" fill="#FFFFFF"/></g><g><path d="M79.4,25" fill="#FFFFFF"/></g><g><path d="M69,28.7" fill="#E9705A"/><g><path d="M67,28.5C67,28.5,67,28.5,67,28.5c-0.1-0.1-0.2-0.1-0.3-0.2c-0.1,0-0.2-0.1-0.3-0.1      C66.6,28.4,66.8,28.5,67,28.5z" fill="#C9C8CA"/></g></g><g opacity="0.5"><path d="     M71.4,25.1" fill="none" stroke="#4E4F52" stroke-linecap="round" stroke-linejoin="round" stroke-miterlimit="10" stroke-width="0.7"/><path d="     M73.8,24.4" fill="none" stroke="#4E4F52" stroke-linecap="round" stroke-linejoin="round" stroke-miterlimit="10" stroke-width="0.7"/></g></g><g><path d="M71,25.8l-1.1,10.2c0.4,0.3,0.9,0.6,1.4,0.9l1.2-10.9L71,25.8z" fill="#666666"/><path d="M71,25.8l-1.1,10.2c0.4,0.3,0.9,0.6,1.4,0.9l1.2-10.9L71,25.8z" fill="#666666"/><path d="M74.5,18.3c0.1,0,0.1,0.5,0.2,0.5c2.2,0.2,7.8,0.9,8.8,1c0.9,0,1.6,0,2.1-0.2c0.3-0.1,0.6-0.3,0.8-0.5    c0.7-0.7,0.8-2.6,0.6-3.9c-0.3-1.4-1.6-3.3-3.9-3.3c-0.6,0-1.4,0.2-2.5,0.6l0,0c-1.7,0.6-3.7,1.6-5,2.3c-0.6,0.3-1.5,0.8-1.7,1    C72.5,16.7,74.2,18.4,74.5,18.3z" fill="#B5B4B6"/><path d="M73.6,19.6c0.1-0.5,0.6-0.9,1.1-0.8c2.2,0.2,7.4,0.8,8.5,0.8c1.4,0.1,2.2,0,2.8-0.7    c0.6-0.6,0.7-2.4,0.5-3.7c-0.2-1.3-1.5-3.1-3.7-3.1c-2.2,0-7.2,2.8-8.4,3.4c-1.2,0.6-2.2,1.7-2.7,4.2c-0.2,1.2-0.4,2.9-0.5,4.2    c0.7,0.2,1.4,0.2,1.8,0.2C73.1,22.6,73.4,20.7,73.6,19.6z" fill="#E8E7E9"/><g><path d="M86,15.4c0.2,1.3,0.1,3.1-0.5,3.7c-0.2,0.2-0.3,0.3-0.5,0.4c0.4-0.1,0.7-0.3,1-0.6     c0.6-0.6,0.7-2.4,0.5-3.7c-0.2-1.3-1.5-3.1-3.7-3.1c-0.7,0-1.6,0.3-2.7,0.7c0.9-0.3,1.6-0.5,2.2-0.5C84.5,12.2,85.8,14.1,86,15.4     z" fill="#E3E1E2"/></g><path d="M85.9,18.9c0.6-0.6,0.7-2.4,0.5-3.7c-0.2-1.3-1.5-3.1-3.7-3.1c-0.1,0-0.3,0-0.5,0l2.7,7.3    C85.3,19.4,85.6,19.2,85.9,18.9z" fill="#FFFFFF" opacity="0.8"/><g opacity="0.5"><g><line fill="#FFFFFF" x1="84" x2="82.7" y1="18.3" y2="18.8"/><path d="M82.7,18.9C82.6,18.9,82.6,18.9,82.7,18.9c-0.1-0.1-0.1-0.2,0-0.2l1.3-0.5c0,0,0.1,0,0.1,0.1      c0,0.1,0,0.1-0.1,0.1L82.7,18.9C82.7,18.9,82.7,18.9,82.7,18.9z" fill="#666666"/></g><g><line fill="#FFFFFF" x1="83.7" x2="81" y1="17.7" y2="18.7"/><path d="M81,18.8C80.9,18.8,80.9,18.8,81,18.8c-0.1-0.1-0.1-0.2,0-0.2l2.8-1c0,0,0.1,0,0.1,0.1      c0,0.1,0,0.1-0.1,0.1L81,18.8C81,18.8,81,18.8,81,18.8z" fill="#666666"/></g><g><line fill="#FFFFFF" x1="83.5" x2="79.5" y1="17.1" y2="18.6"/><path d="M79.5,18.7C79.4,18.7,79.4,18.6,79.5,18.7c-0.1-0.1-0.1-0.2,0-0.2l4-1.5c0,0,0.1,0,0.1,0.1      c0,0.1,0,0.1-0.1,0.1L79.5,18.7C79.5,18.7,79.5,18.7,79.5,18.7z" fill="#666666"/></g><g><line fill="#FFFFFF" x1="83.3" x2="77.7" y1="16.4" y2="18.5"/><path d="M77.7,18.6C77.7,18.6,77.7,18.5,77.7,18.6c-0.1-0.1-0.1-0.2,0-0.2l5.5-2c0,0,0.1,0,0.1,0.1      c0,0.1,0,0.1-0.1,0.1L77.7,18.6C77.8,18.6,77.8,18.6,77.7,18.6z" fill="#666666"/></g><g><line fill="#FFFFFF" x1="83" x2="76" y1="15.8" y2="18.4"/><path d="M76,18.5C76,18.5,75.9,18.5,76,18.5c-0.1-0.1-0.1-0.2,0-0.2l7-2.6c0,0,0.1,0,0.1,0.1      c0,0.1,0,0.1-0.1,0.1L76,18.5C76,18.5,76,18.5,76,18.5z" fill="#666666"/></g><g><line fill="#FFFFFF" x1="82.8" x2="75.6" y1="15.2" y2="17.8"/><path d="M75.6,17.9C75.5,17.9,75.5,17.9,75.6,17.9c-0.1-0.1-0.1-0.2,0-0.2l7.2-2.7c0,0,0.1,0,0.1,0.1      c0,0.1,0,0.1-0.1,0.1L75.6,17.9C75.6,17.9,75.6,17.9,75.6,17.9z" fill="#666666"/></g><g><line fill="#FFFFFF" x1="82.6" x2="75.3" y1="14.5" y2="17.2"/><path d="M75.3,17.3C75.3,17.3,75.3,17.3,75.3,17.3c-0.1-0.1-0.1-0.2,0-0.2l7.2-2.7c0,0,0.1,0,0.1,0.1      c0,0.1,0,0.1-0.1,0.1L75.3,17.3C75.4,17.3,75.3,17.3,75.3,17.3z" fill="#666666"/></g><g><line fill="#FFFFFF" x1="82.3" x2="75.1" y1="13.9" y2="16.6"/><path d="M75.1,16.7C75.1,16.7,75,16.6,75.1,16.7c-0.1-0.1-0.1-0.2,0-0.2l7.2-2.7c0,0,0.1,0,0.1,0.1      c0,0.1,0,0.1-0.1,0.1L75.1,16.7C75.1,16.6,75.1,16.7,75.1,16.7z" fill="#666666"/></g><g><line fill="#FFFFFF" x1="82.1" x2="74.9" y1="13.3" y2="15.9"/><path d="M74.9,16C74.8,16,74.8,16,74.9,16c-0.1-0.1-0.1-0.2,0-0.2l7.2-2.7c0,0,0.1,0,0.1,0.1      c0,0.1,0,0.1-0.1,0.1L74.9,16C74.9,16,74.9,16,74.9,16z" fill="#666666"/></g></g><g><path d="M74.3,18.8c0.1,0,0.2,0,0.4,0C74.5,18.8,74.4,18.8,74.3,18.8z" fill="#E3E1E2"/><path d="M72.5,26.4c0.1-0.1,0.2-1.1,0.4-2.3c-0.5,0-1.1,0-1.8-0.2v0c-0.1,1.3-0.2,2.3-0.2,2.3     C71.4,26.5,71.9,26.6,72.5,26.4z" fill="#2D2F30"/></g></g><g><path d="M76.6,103.2c0-0.9,0.7-1.7,1.7-1.7h2.4c2.4,0,3.3-1.9,3.3-4.3V73.9c0-1.6,0.1-3.1-1.3-3.8    c-1.3-0.7-2.3-1.9-2.6-3.4C78.2,58,77,49.3,76.6,40.4H53.3v63.1h23.3V103.2z" fill="#EEECE2"/><g><g opacity="0.1"><path d="M68,103h-0.5V74.7c0-0.5-0.4-0.9-0.8-0.9l-2-0.2c-3.9-0.8-6.8-4.2-6.8-8.2v-25h0.5v25      c0,3.7,2.7,7,6.3,7.7l1.9,0.2c0.7,0.1,1.3,0.7,1.3,1.4V103z" fill="#666666"/></g><g opacity="0.5"><g opacity="0.5"><path d="M67.1,101.5h-0.5v-2h0.5V101.5z M67.1,97.5h-0.5v-2h0.5V97.5z M67.1,93.5h-0.5v-2h0.5V93.5z M67.1,89.5       h-0.5v-2h0.5V89.5z M67.1,85.5h-0.5v-2h0.5V85.5z M67.1,81.5h-0.5v-2h0.5V81.5z M67.1,77.5h-0.5v-2h0.5V77.5z M65.7,74.7       l-2-0.4l0.1-0.5l2,0.4L65.7,74.7z M61.7,73.7c-0.6-0.3-1.2-0.7-1.7-1.1l0.3-0.4c0.5,0.4,1,0.8,1.6,1.1L61.7,73.7z M58.6,71.1       c-0.4-0.6-0.7-1.2-1-1.8l0.5-0.2c0.2,0.6,0.6,1.2,0.9,1.7L58.6,71.1z M57.1,67.3c0-0.4-0.1-0.7-0.1-1.1v-1h0.5v1       c0,0.3,0,0.7,0.1,1L57.1,67.3z M57.5,63.2H57v-2h0.5V63.2z M57.5,59.2H57v-2h0.5V59.2z M57.5,55.2H57v-2h0.5V55.2z M57.5,51.2       H57v-2h0.5V51.2z M57.5,47.2H57v-2h0.5V47.2z M57.5,43.2H57v-2h0.5V43.2z" fill="#666666"/></g></g></g><g opacity="0.2"><rect fill="#F8FBFB" height="63.1" width="2.5" x="53.3" y="40.4"/></g><path d="M76.6,107v-3.6H53.3v3.6c0,0.9,0.7,1.7,1.7,1.7h20C75.8,108.6,76.6,107.9,76.6,107z" fill="#B28E6E" opacity="0.5"/><path d="M52.8,40.7v-4.6c0-1.1,0.9-2.1,2.1-2.1h20c1.1,0,2.1,0.9,2.1,2.1v4.6H52.8z" fill="#B28E6E"/><g><path d="M57.4,34.1h-2.5c-1.1,0-2.1,0.9-2.1,2.1v4.6h2.5v-4.6C55.3,35,56.3,34.1,57.4,34.1z" fill="#F8FBFB" opacity="0.2"/></g><path d="M54.9,109.1c-1.1,0-2.1-0.9-2.1-2.1v-4H77v4c0,1.1-0.9,2.1-2.1,2.1H54.9z" fill="#B28E6E"/><g><path d="M55.3,107v-4h-2.5v4c0,1.1,0.9,2.1,2.1,2.1h2.5C56.3,109.1,55.3,108.1,55.3,107z" fill="#F8FBFB" opacity="0.2"/><path d="M74.5,103v4c0,1.1-0.9,2.1-2.1,2.1h2.5c1.1,0,2.1-0.9,2.1-2.1v-4H74.5z" fill="#000505" opacity="0.1"/></g><polygon fill="#000505" opacity="0.1" points="53.3,103 76.6,103 77,102.2 53.3,102.2   "/><g opacity="0.5"><g opacity="0.5"><path d="M81.1,101.4h-0.5H81.1L81.1,101.4z M81.1,99.4h-0.5v-2h0.5V99.4z M81.1,95.4h-0.5v-2h0.5V95.4z       M81.1,91.4h-0.5v-2h0.5V91.4z M81.1,87.4h-0.5v-2h0.5V87.4z M81.1,83.4h-0.5v-2h0.5V83.4z M81.1,79.4h-0.5v-2h0.5V79.4z       M81.1,75.4h-0.5v-2h0.5V75.4z M81.5,71.6l-0.4-0.2c0.3-0.6,0.9-1.1,1.5-1.5l0.2,0.4C82.3,70.6,81.8,71.1,81.5,71.6z" fill="#666666"/></g></g><path d="M84.9,97.2V73.8c0-1.3-0.6-2.6-1.6-3.4c-0.6,0.5-1.5,1.3-1.5,2.6v27.3v0.9C83.5,100.8,84.9,99.2,84.9,97.2    z" fill="#B28E6E"/><path d="M86.3,96.7h-1.4V86.5h1.4c0.5,0,0.8,0.4,0.8,0.8v8.6C87.2,96.3,86.8,96.7,86.3,96.7z" fill="#E9705A"/><rect fill="#000505" height="10.2" opacity="0.1" width="1.4" x="84.9" y="86.5"/><path d="M59,99.4h17.4c0.9,0,1.7-0.8,1.7-1.7V73.9H57.3v23.8C57.3,98.6,58.1,99.4,59,99.4z" fill="#B28E6E"/><g opacity="0.5"><g opacity="0.5"><path d="M76.2,98.8h-2v-0.5h2V98.8z M72.2,98.8h-2v-0.5h2V98.8z M68.2,98.8h-2v-0.5h2V98.8z M64.2,98.8h-2v-0.5      h2V98.8z M60.2,98.8H59c-0.6,0-1.1-0.5-1.1-1.1V97h0.5v0.7c0,0.3,0.3,0.6,0.6,0.6h1.2V98.8z M77.5,97.2H77v-2h0.5V97.2z       M58.4,95h-0.5v-2h0.5V95z M77.5,93.2H77v-2h0.5V93.2z M58.4,91h-0.5v-2h0.5V91z M77.5,89.2H77v-2h0.5V89.2z M58.4,87h-0.5v-2      h0.5V87z M77.5,85.2H77v-2h0.5V85.2z M58.4,83h-0.5v-2h0.5V83z M77.5,81.2H77v-2h0.5V81.2z M58.4,79h-0.5v-2h0.5V79z M77.5,77.2      H77v-2h0.5V77.2z M58.4,75h-0.5v-0.6h1.9v0.5L58.4,75L58.4,75z M75.8,74.9h-2v-0.5h2V74.9z M71.8,74.9h-2v-0.5h2V74.9z       M67.8,74.9h-2v-0.5h2V74.9z M63.8,74.9h-2v-0.5h2V74.9z" fill="#666666"/></g></g><path d="M76.9,83l-18.2-0.7c-0.7,0-1.7-0.9-1.7-1.8v-6.7h21.6v7.5C78.5,82.3,77.8,83,76.9,83z" fill="#000505" opacity="0.1"/><path d="M78.1,97.7V73.9c-3.6,4.4-1.7,25.5-1.7,25.5C77.3,99.4,78.1,98.6,78.1,97.7z" fill="#000505" opacity="0.1"/><path d="M57.3,97.7V73.9c3.6,4.4,1.7,25.5,1.7,25.5C58.1,99.4,57.3,98.6,57.3,97.7z" fill="#F8FBFB" opacity="0.1"/><path d="M76.9,82.2H58.5c-0.9,0-1.7-0.7-1.7-1.7v-6.7h21.6v6.7C78.5,81.4,77.8,82.2,76.9,82.2z" fill="#B28E6E"/><g opacity="0.5"><g opacity="0.5"><path d="M76,81.6h-2v-0.5h2V81.6z M72,81.6h-2v-0.5h2V81.6z M68,81.6h-2v-0.5h2V81.6z M64,81.6h-2v-0.5h2V81.6z       M60,81.6h-1.4c-0.2,0-0.5-0.1-0.7-0.2l0.3-0.4c0.1,0.1,0.2,0.1,0.4,0.1H60V81.6z M77.9,80.8l-0.5-0.1c0,0,0-0.1,0-0.1v-1.8h0.5      v1.8C77.9,80.6,77.9,80.7,77.9,80.8z M58,79.3h-0.5v-2H58V79.3z M77.9,76.7h-0.5v-2h0.5V76.7z M58,75.3h-0.5v-0.6H58V75.3z" fill="#666666"/></g></g><path d="M79.7,64.7c-1.8-8.6-2.7-16.3-3.1-25h-8.4c0.8,2,1.5,5.2,2.2,7.3c0.3,0.8-0.2,1.7-1,2l-9,3.4    c-0.8,0.3-1.3,1.2-1.1,2c0.3,1,1.3,1.5,2.2,1.1l8.6-3.3c0.9-0.3,1.9,0.2,2.2,1.1c0.3,1.1,0.6,2.2,1,3.3c0.2,0.7,0,1.4-0.6,1.8    l-6.7,5.2c-0.7,0.5-0.9,1.4-0.5,2.2c0.5,0.9,1.7,1.1,2.5,0.5l5.2-4.1c0.8-0.6,2-0.4,2.5,0.5c1.1,2.1,2.5,3.6,4.2,4.1    c0.2,0.1,0.4-0.1,0.4-0.4C80,66,79.7,64.8,79.7,64.7z" fill="#B28E6E"/><path d="M74.9,34.1h-2.5c1.1,0,2.1,0.9,2.1,2.1v4.6H77v-4.6C77,35,76,34.1,74.9,34.1z" fill="#000505" opacity="0.1"/><path d="M82.6,70.1c-1.3-0.7-2.3-1.9-2.6-3.4c-1.8-8.6-3-17.3-3.4-26.1h-2.5    c0.4,8.8,1.6,17.4,3.4,26.1c0.3,1.4,1.3,2.7,2.6,3.4c1.4,0.7,2.3,2.2,2.3,3.8v23.3c0,2.4-1.9,4.3-4.3,4.3h-2.4    c-0.8,0-1.5,0.6-1.6,1.4h2.5c0.1-0.8,0.8-1.4,1.6-1.4h2.4c2.4,0,4.3-1.9,4.3-4.3V73.9C84.9,72.3,84,70.9,82.6,70.1z" fill="#636467" opacity="0.1"/><polygon fill="#000505" opacity="0.15" points="76.6,41.5 76.6,40.7 53.3,40.7 53.3,41.5   "/><g opacity="0.5"><g opacity="0.5"><path d="M66.9,66.3c-0.4,0-0.8-0.2-1-0.6c-0.1-0.1-0.1-0.3-0.1-0.5c0-0.3,0.1-0.6,0.3-0.8l0.4,0.3      c-0.1,0.1-0.2,0.3-0.2,0.5c0,0.1,0,0.2,0.1,0.2c0.1,0.2,0.3,0.3,0.5,0.3V66.3z M78.8,66c-0.5-0.3-1-0.8-1.5-1.4l0.4-0.3      c0.4,0.6,0.9,1,1.4,1.3L78.8,66z M68.4,65.4L68.1,65l1.6-1.2l0.3,0.4L68.4,65.4z M78.5,64.2c-0.1-0.7-0.3-1.3-0.4-2l0.5-0.1      c0.1,0.6,0.3,1.3,0.4,2L78.5,64.2z M68.1,63.5l-0.3-0.4l1.6-1.2l0.3,0.4L68.1,63.5z M71.6,62.9l-0.3-0.4l1.2-0.9      c0.1-0.1,0.3-0.2,0.4-0.3l0.2,0.4c-0.1,0.1-0.2,0.1-0.4,0.2L71.6,62.9z M76.2,62.8L76.2,62.8c-0.3-0.6-0.8-1-1.3-1.2l0.2-0.5      c0.7,0.2,1.2,0.7,1.5,1.3l0,0.1L76.2,62.8z M71.2,61.1l-0.3-0.4l1.6-1.2l0.3,0.4L71.2,61.1z M77.7,60.2c-0.1-0.7-0.2-1.3-0.4-2      l0.5-0.1c0.1,0.6,0.2,1.3,0.4,2L77.7,60.2z M74.2,58.3l-0.5-0.2c0.1-0.3,0.2-0.5,0.2-0.8c0-0.2,0-0.5-0.1-0.7l-0.1-0.3l0.5-0.1      l0.1,0.3c0.1,0.3,0.1,0.5,0.1,0.8C74.4,57.6,74.3,57.9,74.2,58.3z M77,56.3c-0.1-0.7-0.2-1.3-0.3-2l0.5-0.1      c0.1,0.7,0.2,1.3,0.3,2L77,56.3z M61.7,54.9l-0.2-0.5l1.9-0.7l0.2,0.5L61.7,54.9z M73.1,54.4l-0.3-1.1c-0.1-0.3-0.2-0.5-0.4-0.7      l0.4-0.3c0.2,0.3,0.3,0.6,0.4,0.9l0.3,1.1L73.1,54.4z M59.8,54.1L59.8,54.1c0-0.5,0.3-0.9,0.8-1.1l0.8-0.3l0.2,0.5l-0.8,0.3      c-0.3,0.1-0.5,0.4-0.5,0.6L59.8,54.1z M65.4,53.5L65.2,53l1.9-0.7l0.2,0.5L65.4,53.5z M63.4,52.5L63.2,52l1.9-0.7l0.2,0.5      L63.4,52.5z M76.5,52.3c-0.1-0.7-0.2-1.3-0.2-2l0.5-0.1c0.1,0.7,0.2,1.3,0.2,2L76.5,52.3z M69.1,52.1L69,51.6l0.7-0.3      c0.3-0.1,0.7-0.2,1-0.2c0.1,0,0.2,0,0.4,0l-0.1,0.5c-0.1,0-0.2,0-0.3,0c-0.3,0-0.5,0-0.8,0.1L69.1,52.1z M67.1,51.1L67,50.6      l1.9-0.7l0.2,0.5L67.1,51.1z M70.8,49.3L70.5,49c0.4-0.4,0.6-0.9,0.6-1.5c0-0.1,0-0.1,0-0.2l0.5,0c0,0.1,0,0.1,0,0.2      C71.5,48.2,71.3,48.8,70.8,49.3z M76,48.3c-0.1-0.7-0.1-1.3-0.2-2l0.5,0c0.1,0.7,0.1,1.3,0.2,2L76,48.3z M70.5,45.5      c-0.2-0.7-0.4-1.3-0.6-1.9l0.5-0.2c0.2,0.6,0.4,1.2,0.6,1.9L70.5,45.5z M75.7,44.3c0-0.7-0.1-1.3-0.1-2l0.5,0      c0,0.7,0.1,1.3,0.1,2L75.7,44.3z M69.2,41.7L68.9,41h2v0.5h-1.2l0,0L69.2,41.7z M74.9,41.5h-2V41h2V41.5z" fill="#666666"/></g></g><path d="M75.6,63c-0.5-0.9-1.7-1.2-2.5-0.5l-5.2,4.1c-0.8,0.6-2,0.4-2.5-0.5    c-0.2-0.4-0.2-0.9-0.1-1.4c-0.3,0.5-0.4,1.1-0.1,1.7c0.5,0.9,1.7,1.2,2.5,0.6l5.3-4c0.8-0.6,2-0.4,2.5,0.6    c1.1,2.1,2.4,3.6,4.1,4.1c0.2,0.1,0.4-0.1,0.4-0.4c0,0,0-0.1,0-0.1c-0.1,0-0.1,0-0.2,0C78.1,66.6,76.7,65.1,75.6,63z" fill="#000505" opacity="0.1"/><path d="M73.2,56.8c-0.3-1.1-0.7-2.2-1-3.3C72,52.5,71,52,70,52.4l-8.6,3.3    c-0.9,0.3-1.9-0.2-2.2-1.1c0-0.1,0-0.2,0-0.3c0,0.2,0,0.3,0,0.5c0.2,1,1.3,1.5,2.2,1.2l8.7-3.1c0.9-0.3,1.9,0.2,2.2,1.1    c0.3,1.1,0.6,2.2,0.9,3.3c0,0.2,0.1,0.3,0.1,0.5C73.3,57.3,73.3,57,73.2,56.8z" fill="#000505" opacity="0.1"/><g><path d="M66.1,50.2l-0.1-0.3c0-0.1-0.1-0.1-0.2-0.1     l-2.5,1c-0.1,0-0.1,0.1-0.1,0.2l1.5,4c0,0.1,0.1,0.1,0.2,0.1l2.6-1c0.1,0,0.1-0.1,0.1-0.2l-0.1-0.3" fill="none" stroke="#575757" stroke-miterlimit="10" stroke-width="0.7"/><line fill="none" stroke="#575757" stroke-linecap="round" stroke-linejoin="round" stroke-miterlimit="10" stroke-width="0.7" x1="62.8" x2="65.3" y1="53.3" y2="52.3"/></g><g><path d="M69.6,60.8l-0.2-0.3c-0.1-0.1-0.2-0.1-0.2,0     L67,62.2c-0.1,0.1-0.1,0.2,0,0.2l2.7,3.3c0.1,0.1,0.2,0.1,0.2,0l2.1-1.7c0.1-0.1,0.1-0.2,0-0.2l-0.2-0.2" fill="none" stroke="#575757" stroke-miterlimit="10" stroke-width="0.7"/><line fill="none" stroke="#575757" stroke-linecap="round" stroke-linejoin="round" stroke-miterlimit="10" stroke-width="0.7" x1="67.4" x2="69.5" y1="64.8" y2="63.1"/></g><circle cx="67.7" cy="79.5" fill="none" r="0.8" stroke="#575757" stroke-miterlimit="10" stroke-width="0.7"/></g></g></svg>