<?xml version="1.0" ?><svg enable-background="new 0 0 512 512" id="Layer_1" version="1.1" viewBox="0 0 512 512" xml:space="preserve" xmlns="http://www.w3.org/2000/svg" xmlns:xlink="http://www.w3.org/1999/xlink"><g><g><linearGradient gradientUnits="userSpaceOnUse" id="SVGID_1_" x1="-0.0000027" x2="512" y1="256" y2="256"><stop offset="0" style="stop-color:#8DC63F"/><stop offset="1" style="stop-color:#76B83F"/></linearGradient><circle cx="256" cy="256" fill="url(#SVGID_1_)" r="256"/><linearGradient gradientUnits="userSpaceOnUse" id="SVGID_2_" x1="42.6666641" x2="469.3333435" y1="256.0005188" y2="256.0005188"><stop offset="0" style="stop-color:#76B83F"/><stop offset="1" style="stop-color:#8DC63F"/></linearGradient><path d="M256,469.3338623c-117.6314697,0-213.3333435-95.7023926-213.3333435-213.3333435    c0-117.6314545,95.7018661-213.333313,213.3333435-213.333313c117.6357422,0,213.3333435,95.7018661,213.3333435,213.333313    C469.3333435,373.6314697,373.6357422,469.3338623,256,469.3338623z" fill="url(#SVGID_2_)"/></g><polygon opacity="0.3" points="206.9722595,291.5333252 350.3424072,225.9461365 206.9722595,160.3600006 206.9722595,144    197.1759949,144 197.1759949,155.8533325 197.1759949,296.0400085 197.1759949,374.203186 177.6570587,374.203186 177.6570587,384    226.4597321,384 226.4597321,374.203186 206.9722595,374.203186  "/><polygon fill="#FFFFFF" points="198.9722595,283.5333252 342.3424072,217.9461365 198.9722595,152.3600006 198.9722595,136    189.1759949,136 189.1759949,147.8533325 189.1759949,288.0400085 189.1759949,366.203186 169.6570587,366.203186 169.6570587,376    218.4597321,376 218.4597321,366.203186 198.9722595,366.203186  "/></g></svg>