<?xml version="1.0" ?><!DOCTYPE svg  PUBLIC '-//W3C//DTD SVG 1.1//EN'  'http://www.w3.org/Graphics/SVG/1.1/DTD/svg11.dtd'><svg enable-background="new 0 0 256 256" id="Layer_1" version="1.1" viewBox="0 0 256 256" xml:space="preserve" xmlns="http://www.w3.org/2000/svg" xmlns:xlink="http://www.w3.org/1999/xlink"><g><path d="M206.5,147.7c-4.9-2.8-9.4-6.3-14.3-8.9c-13.3-7-29.2-7.7-44.1-5c-14.8,2.7-28.9,8.5-42.9,13.9   c-15.5,5.9-31.1,11.4-46.7,16.9c-9.9,3.5-19.8,7-30.2,8.6c-6.2,0.9-12.5,1.2-18.7,0.9C28.1,221.5,74.1,255,128,255   c60,0,110.3-41.7,123.6-97.6C236,158.2,220,155.5,206.5,147.7z" fill="#1AA386"/><path d="M128,1C57.9,1,1,57.9,1,128c0,16.3,3.1,31.8,8.6,46.1c6.3,0.3,12.5,0,18.7-0.9c10.3-1.6,20.3-5.1,30.2-8.6   c15.6-5.5,31.2-11,46.7-16.9c14.1-5.4,28.1-11.2,42.9-13.9c14.8-2.7,30.8-2,44.1,5c5,2.6,9.5,6.1,14.3,8.9   c13.5,7.8,29.5,10.5,45,9.7c2.2-9.4,3.4-19.3,3.4-29.4C255,57.9,198.1,1,128,1z" fill="#D6E1E2"/><ellipse cx="72.1" cy="191.3" fill="#0B2C48" rx="5.7" ry="2.4"/><g><path d="M70.4,83.4v107.2c0,0.8,0.7,1.5,1.5,1.5s1.5-0.7,1.5-1.5V83.4H70.4z" fill="#065078"/><polygon fill="#DE3345" points="73.5,83.4 73.5,127.1 117,105.3   "/></g><circle cx="165.6" cy="191.3" fill="#EDF0F2" r="9.5"/></g></svg>