<?xml version="1.0" ?><!DOCTYPE svg  PUBLIC '-//W3C//DTD SVG 1.0//EN'  'http://www.w3.org/TR/2001/REC-SVG-20010904/DTD/svg10.dtd'><svg enable-background="new 0 0 100 100" height="100px" id="Layer_1" version="1.0" viewBox="0 0 100 100" width="100px" xml:space="preserve" xmlns="http://www.w3.org/2000/svg" xmlns:xlink="http://www.w3.org/1999/xlink"><g><circle cx="50" cy="50.001" fill="#FFCE67" r="40"/><g><path d="M71.801,23.644c-2.981,0-5.23,1.231-5.748,2.547l-0.001-0.001c0,0.001,0,0.002,0,0.003    c-0.074,0.188-0.112,0.378-0.113,0.565c-0.59,1.853-3.467,5.338-3.467,5.338l0.183,0.183L52.522,49.024L42.391,32.278l0.183-0.183    c0,0-2.873-3.48-3.467-5.334V26.76c0-1.506-2.453-3.116-5.862-3.116c-3.41,0-6.174,2.039-6.174,3.545    c0,1.505,0.623,2.648,6.174,2.648c1.086,0,2.073-0.16,2.917-0.426l-0.001,0.001c0,0,0.002-0.001,0.008-0.004    c0.081-0.025,0.159-0.054,0.237-0.082c0.707-0.185,2.849-0.312,5.079,3.86l0.173-0.174l10.162,17.173l-2.678,4.428    c-0.283,0.045-0.545,0.205-0.704,0.468L36.367,75.119c-0.147,0.244-0.175,0.525-0.105,0.781l-0.091,0.152l0.224,0.135    c0.08,0.12,0.183,0.227,0.314,0.306L37.05,76.7c0.472,0.284,1.084,0.127,1.361-0.35l11.755-20.229    c0.16-0.274,0.17-0.596,0.063-0.875l2.292-3.874l2.293,3.875c-0.106,0.278-0.097,0.6,0.063,0.874l11.754,20.229    c0.277,0.477,0.89,0.634,1.361,0.35l0.343-0.207c0.131-0.079,0.235-0.186,0.314-0.306l0.224-0.135L68.782,75.9    c0.071-0.255,0.044-0.537-0.104-0.781L56.607,55.081c-0.159-0.263-0.421-0.423-0.703-0.468l-2.68-4.428l10.164-17.173l0.174,0.174    c2.229-4.172,4.37-4.045,5.078-3.86c0.078,0.028,0.156,0.057,0.237,0.082c0.006,0.003,0.008,0.004,0.008,0.004l-0.001-0.001    c0.844,0.266,1.83,0.426,2.916,0.426c5.552,0,6.175-1.144,6.175-2.648C77.976,25.683,75.211,23.644,71.801,23.644z" fill="#E0915F"/></g><g><g><g><g><polygon fill="#A7ADBD" points="37.719,32.131 38.577,31.614 65.319,75.817 64.033,76.592      "/><path d="M51.324,55.886c-0.277-0.477-0.117-1.099,0.354-1.382l0,0c0.473-0.284,1.091-0.131,1.374,0.341       l12.072,20.039c0.283,0.471,0.13,1.09-0.342,1.374l-0.344,0.206c-0.471,0.284-1.083,0.127-1.36-0.349L51.324,55.886z" fill="#2C2E36"/></g><path d="M35.552,26.524c0-1.507-2.453-3.116-5.862-3.116c-3.41,0-6.174,2.038-6.174,3.544      c0,1.505,0.623,2.649,6.174,2.649C33.099,29.602,35.552,28.029,35.552,26.524z" fill="#2C2E36"/><path d="M32.604,29.177c0,0,2.596-1.329,5.324,3.773l1.09-1.09c0,0-3.581-4.333-3.581-5.906L32.604,29.177z" fill="#231F20"/><path d="M38.016,32.264c-0.781-0.978-2.323-3.007-3.012-4.577c-0.42,0.478-0.58,0.66-1.069,1.216      c1.077,0.218,2.521,1.04,3.982,3.46C37.966,32.313,37.97,32.31,38.016,32.264z" fill="#5D626C"/><path d="M34.906,26.56c0-1.131-2.434-2.768-5.081-2.768c-2.646,0-4.48,0.724-4.48,1.854      c0,1.132,0.173,2.396,4.48,2.396C32.472,28.043,34.906,27.69,34.906,26.56z" fill="#A7ADBD"/><g><g><path d="M31.974,25.95c0.004-0.105,0.093-0.187,0.198-0.182l1.579,0.065c0.104,0.005,0.186,0.093,0.181,0.197        l0,0c-0.003,0.104-0.092,0.187-0.196,0.182l-1.579-0.065C32.052,26.143,31.97,26.055,31.974,25.95L31.974,25.95z" fill="#FFE2BB"/><path d="M26.691,26.711c0.004-0.105,0.092-0.187,0.197-0.182l6.506,0.271c0.105,0.005,0.187,0.092,0.181,0.197        l0,0c-0.003,0.105-0.093,0.187-0.197,0.183l-6.506-0.271C26.768,26.903,26.687,26.815,26.691,26.711L26.691,26.711z" fill="#FFE2BB"/><path d="M29.1,25.83c0.004-0.104,0.093-0.187,0.198-0.182l1.579,0.065c0.104,0.005,0.186,0.094,0.181,0.198        l0,0c-0.004,0.104-0.092,0.186-0.197,0.182l-1.579-0.066C29.177,26.023,29.096,25.936,29.1,25.83L29.1,25.83z" fill="#FFE2BB"/><path d="M26.226,25.71c0.004-0.104,0.093-0.186,0.198-0.182l1.579,0.066c0.104,0.004,0.186,0.093,0.181,0.197        l0,0c-0.004,0.105-0.093,0.186-0.197,0.182l-1.579-0.065C26.304,25.903,26.223,25.815,26.226,25.71L26.226,25.71z" fill="#FFE2BB"/><path d="M27.843,24.86c0.005-0.104,0.093-0.187,0.198-0.182l1.579,0.066c0.105,0.004,0.186,0.093,0.182,0.197        l0,0c-0.005,0.104-0.092,0.186-0.197,0.181l-1.579-0.065C27.92,25.054,27.839,24.965,27.843,24.86L27.843,24.86z" fill="#FFE2BB"/><path d="M30.717,24.98c0.004-0.104,0.092-0.187,0.198-0.183l1.579,0.067c0.105,0.004,0.186,0.092,0.182,0.196        l0,0c-0.004,0.105-0.092,0.187-0.197,0.182l-1.579-0.065C30.794,25.173,30.713,25.085,30.717,24.98L30.717,24.98z" fill="#FFE2BB"/></g></g><path d="M33.805,27.969c0,0-9.14,1.686-8.73-1.817C25.54,22.18,19.013,32.494,33.805,27.969z" fill="#5D626C"/></g><g><g><polygon fill="#A7ADBD" points="60.216,32.131 59.358,31.614 32.615,75.817 33.901,76.592      "/><path d="M46.611,55.886c0.277-0.477,0.118-1.099-0.354-1.382l0,0c-0.472-0.284-1.09-0.131-1.375,0.341       l-12.07,20.039c-0.285,0.471-0.131,1.09,0.341,1.374l0.342,0.206c0.472,0.284,1.084,0.127,1.361-0.349L46.611,55.886z" fill="#2C2E36"/></g><path d="M62.384,26.524c0-1.507,2.452-3.116,5.862-3.116s6.174,2.038,6.174,3.544      c0,1.505-0.623,2.649-6.174,2.649C64.836,29.602,62.384,28.029,62.384,26.524z" fill="#231F20"/><path d="M65.33,29.177c0,0-2.596-1.329-5.323,3.773l-1.09-1.09c0,0,3.58-4.333,3.58-5.906L65.33,29.177z" fill="#2C2E36"/><path d="M59.919,32.264c0.781-0.978,2.322-3.007,3.012-4.577c0.421,0.478,0.58,0.66,1.069,1.216      c-1.076,0.218-2.52,1.04-3.982,3.46C59.969,32.313,59.965,32.31,59.919,32.264z" fill="#5D626C"/><path d="M63.029,26.56c0-1.131,2.433-2.768,5.08-2.768c2.646,0,4.48,0.724,4.48,1.854      c0,1.132-0.173,2.396-4.48,2.396C65.462,28.043,63.029,27.69,63.029,26.56z" fill="#A7ADBD"/><g><g><path d="M65.96,25.95c-0.004-0.105-0.093-0.187-0.196-0.182l-1.58,0.065c-0.104,0.005-0.186,0.093-0.182,0.197        l0,0c0.005,0.104,0.094,0.187,0.198,0.182l1.578-0.065C65.884,26.143,65.966,26.055,65.96,25.95L65.96,25.95z" fill="#FFE2BB"/><path d="M71.244,26.711c-0.005-0.105-0.092-0.187-0.197-0.182L64.54,26.8        c-0.104,0.005-0.185,0.092-0.181,0.197l0,0c0.004,0.105,0.092,0.187,0.196,0.183l6.506-0.271        C71.167,26.903,71.248,26.815,71.244,26.711L71.244,26.711z" fill="#FFE2BB"/><path d="M68.834,25.83c-0.004-0.104-0.093-0.187-0.196-0.182l-1.58,0.065        c-0.104,0.005-0.186,0.094-0.181,0.198l0,0c0.003,0.104,0.093,0.186,0.197,0.182l1.579-0.066        C68.758,26.023,68.839,25.936,68.834,25.83L68.834,25.83z" fill="#FFE2BB"/><path d="M71.708,25.71c-0.004-0.104-0.093-0.186-0.197-0.182l-1.579,0.066        c-0.104,0.004-0.186,0.093-0.182,0.197l0,0c0.005,0.105,0.093,0.186,0.197,0.182l1.58-0.065        C71.632,25.903,71.713,25.815,71.708,25.71L71.708,25.71z" fill="#FFE2BB"/><path d="M70.092,24.86c-0.005-0.104-0.094-0.187-0.198-0.182l-1.579,0.066        c-0.104,0.004-0.186,0.093-0.182,0.197l0,0c0.005,0.104,0.093,0.186,0.197,0.181l1.579-0.065        C70.015,25.054,70.096,24.965,70.092,24.86L70.092,24.86z" fill="#FFE2BB"/><path d="M67.217,24.98c-0.004-0.104-0.093-0.187-0.197-0.183l-1.579,0.067        c-0.104,0.004-0.187,0.092-0.182,0.196l0,0c0.005,0.105,0.093,0.187,0.197,0.182l1.579-0.065        C67.141,25.173,67.222,25.085,67.217,24.98L67.217,24.98z" fill="#FFE2BB"/></g></g><path d="M64.13,27.969c0,0,9.141,1.686,8.729-1.817C72.395,22.18,78.921,32.494,64.13,27.969z" fill="#5D626C"/></g></g></g></g></svg>